<svg width="124" height="62" viewBox="0 0 124 62" fill="none" xmlns="http://www.w3.org/2000/svg">
<ellipse cx="98.5078" cy="23.5472" rx="20.6501" ry="20.0152" fill="#196CCE"/>
<ellipse cx="93.4923" cy="28.9404" rx="21.3034" ry="21.7053" fill="#F09831"/>
<rect x="93.8943" width="8.90787" height="6.67174" fill="#196CCE"/>
<rect width="8.7972" height="6.75886" transform="matrix(0.779159 0.626826 -0.650438 0.75956 110.192 1.96231)" fill="#196CCE"/>
<rect width="8.65224" height="6.86968" transform="matrix(0.209318 0.977848 -0.980967 0.194177 121.535 13.6664)" fill="#196CCE"/>
<rect x="108.808" y="33.2279" width="14.8035" height="6.04143" fill="#F09831"/>
<rect width="14.3484" height="6.23306" transform="matrix(0.000534846 1 -1 0.000502466 87.7716 0)" fill="#F09831"/>
<path d="M11.104 56.2844V41.8611H13.2802V48.7488H13.4563L19.5059 41.8611H22.2455L16.4283 48.3544L22.2666 56.2844H19.6468L14.9845 49.8404L13.2802 51.7982V56.2844H11.104ZM42.0512 49.0727C42.0512 50.6127 41.7695 51.9368 41.2061 53.0448C40.6427 54.1481 39.8704 54.998 38.8891 55.5942C37.9125 56.1858 36.8021 56.4816 35.5579 56.4816C34.309 56.4816 33.1939 56.1858 32.2126 55.5942C31.236 54.998 30.466 54.1458 29.9026 53.0378C29.3392 51.9297 29.0575 50.608 29.0575 49.0727C29.0575 47.5327 29.3392 46.2111 29.9026 45.1077C30.466 43.9997 31.236 43.1499 32.2126 42.5583C33.1939 41.962 34.309 41.6639 35.5579 41.6639C36.8021 41.6639 37.9125 41.962 38.8891 42.5583C39.8704 43.1499 40.6427 43.9997 41.2061 45.1077C41.7695 46.2111 42.0512 47.5327 42.0512 49.0727ZM39.8962 49.0727C39.8962 47.899 39.706 46.9106 39.3257 46.1078C38.9501 45.3002 38.4336 44.6899 37.7763 44.2767C37.1237 43.8588 36.3842 43.6499 35.5579 43.6499C34.7269 43.6499 33.985 43.8588 33.3324 44.2767C32.6798 44.6899 32.1633 45.3002 31.783 46.1078C31.4074 46.9106 31.2196 47.899 31.2196 49.0727C31.2196 50.2465 31.4074 51.2372 31.783 52.0447C32.1633 52.8476 32.6798 53.458 33.3324 53.8758C33.985 54.289 34.7269 54.4956 35.5579 54.4956C36.3842 54.4956 37.1237 54.289 37.7763 53.8758C38.4336 53.458 38.9501 52.8476 39.3257 52.0447C39.706 51.2372 39.8962 50.2465 39.8962 49.0727ZM50.013 56.2844V41.8611H55.1541C56.2715 41.8611 57.1988 42.0535 57.936 42.4385C58.6778 42.8235 59.2318 43.3564 59.598 44.0372C59.9642 44.7133 60.1474 45.4951 60.1474 46.3824C60.1474 47.2651 59.9619 48.0422 59.591 48.7136C59.2248 49.3803 58.6707 49.8991 57.9289 50.27C57.1918 50.6409 56.2645 50.8264 55.1471 50.8264H51.2525V48.953H54.9499C55.6541 48.953 56.2269 48.8521 56.6683 48.6502C57.1143 48.4483 57.4406 48.1548 57.6472 47.7698C57.8538 47.3848 57.9571 46.9224 57.9571 46.3824C57.9571 45.8378 57.8514 45.3659 57.6402 44.9669C57.4336 44.5678 57.1073 44.2626 56.6612 44.0513C56.2199 43.8353 55.64 43.7274 54.9217 43.7274H52.1891V56.2844H50.013ZM57.1331 49.777L60.6967 56.2844H58.2177L54.7245 49.777H57.1331ZM68.0439 56.2844V41.8611H77.0867V43.7344H70.2201V48.129H76.6149V49.9953H70.2201V54.4111H77.1712V56.2844H68.0439ZM86.4605 56.2844H84.1505L89.3409 41.8611H91.8552L97.0456 56.2844H94.7356L90.6579 44.4809H90.5452L86.4605 56.2844ZM86.8478 50.6362H94.3412V52.4673H86.8478V50.6362Z" fill="#196CCE"/>
<path d="M10.4456 23C10.4006 22.4366 10.1893 21.9971 9.81181 21.6816C9.43995 21.3661 8.87372 21.2084 8.11312 21.2084C7.62858 21.2084 7.23138 21.2675 6.9215 21.3858C6.61726 21.4985 6.39189 21.6535 6.2454 21.8506C6.09892 22.0478 6.02285 22.2732 6.01722 22.5267C6.00595 22.7352 6.04257 22.9239 6.12709 23.093C6.21723 23.2564 6.35809 23.4057 6.54965 23.5409C6.74121 23.6705 6.98629 23.7888 7.2849 23.8958C7.58351 24.0029 7.93846 24.0987 8.34975 24.1832L9.76955 24.4874C10.7274 24.6902 11.5471 24.9579 12.2288 25.2903C12.9106 25.6227 13.4684 26.0143 13.9022 26.465C14.336 26.9101 14.6543 27.4115 14.8572 27.9693C15.0656 28.5271 15.1727 29.1356 15.1783 29.7948C15.1727 30.9329 14.8882 31.8963 14.3247 32.6851C13.7613 33.4739 12.9557 34.0739 11.9077 34.4852C10.8654 34.8965 9.6118 35.1021 8.14692 35.1021C6.64261 35.1021 5.32986 34.8796 4.20866 34.4345C3.09311 33.9894 2.22545 33.3048 1.6057 32.3808C0.991576 31.4512 0.681699 30.2624 0.676065 28.8144H5.1383C5.16647 29.344 5.29887 29.7891 5.5355 30.1497C5.77214 30.5103 6.10455 30.7836 6.53274 30.9695C6.96657 31.1554 7.48209 31.2484 8.07931 31.2484C8.58075 31.2484 9.00049 31.1864 9.33854 31.0624C9.67659 30.9385 9.93294 30.7667 10.1076 30.5469C10.2823 30.3272 10.3724 30.0765 10.378 29.7948C10.3724 29.53 10.2851 29.299 10.1161 29.1018C9.95266 28.8989 9.68222 28.7187 9.30474 28.5609C8.92725 28.3975 8.41736 28.2454 7.77507 28.1045L6.05103 27.7327C4.51854 27.4003 3.31002 26.8453 2.42546 26.0678C1.54654 25.2846 1.10989 24.217 1.11553 22.8648C1.10989 21.7661 1.40287 20.8055 1.99445 19.9829C2.59167 19.1547 3.41707 18.5096 4.47065 18.0476C5.52987 17.5856 6.74402 17.3546 8.11312 17.3546C9.51038 17.3546 10.7189 17.5884 11.7387 18.0561C12.7585 18.5237 13.5444 19.1829 14.0966 20.0336C14.6543 20.8788 14.936 21.8675 14.9417 23H10.4456ZM16.9657 34.8993V17.5912H29.4397V21.3774H21.6646V24.3522H28.7974V28.1383H21.6646V31.1132H29.4059V34.8993H16.9657ZM31.7701 34.8993V17.5912H39.241C40.5256 17.5912 41.6496 17.8251 42.613 18.2927C43.5764 18.7603 44.3258 19.4336 44.861 20.3125C45.3963 21.1915 45.6639 22.245 45.6639 23.4733C45.6639 24.7128 45.3878 25.7579 44.8357 26.6087C44.2892 27.4594 43.5201 28.1017 42.5285 28.5355C41.5425 28.9694 40.3903 29.1863 39.072 29.1863H34.6097V25.5354H38.1254C38.6776 25.5354 39.148 25.4678 39.5368 25.3325C39.9312 25.1917 40.2326 24.9691 40.441 24.6649C40.6551 24.3607 40.7622 23.9634 40.7622 23.4733C40.7622 22.9775 40.6551 22.5746 40.441 22.2648C40.2326 21.9492 39.9312 21.7182 39.5368 21.5718C39.148 21.4196 38.6776 21.3436 38.1254 21.3436H36.469V34.8993H31.7701ZM41.9116 26.9552L46.2386 34.8993H41.134L36.9085 26.9552H41.9116ZM51.865 17.5912L55.4145 29.7948H55.5497L59.0992 17.5912H64.4065L58.6935 34.8993H52.2706L46.5576 17.5912H51.865ZM70.7724 17.5912V34.8993H66.0735V17.5912H70.7724ZM89.158 24.0818H84.3915C84.3577 23.6874 84.2675 23.3296 84.1211 23.0085C83.9802 22.6873 83.783 22.4112 83.5295 22.1802C83.2816 21.9436 82.9801 21.7633 82.6252 21.6394C82.2702 21.5098 81.8674 21.445 81.4167 21.445C80.6279 21.445 79.9602 21.6365 79.4137 22.0197C78.8729 22.4028 78.4616 22.9521 78.1799 23.6677C77.9038 24.3832 77.7658 25.2424 77.7658 26.2453C77.7658 27.3045 77.9066 28.1919 78.1883 28.9074C78.4757 29.6173 78.8898 30.1525 79.4306 30.5131C79.9715 30.8681 80.6223 31.0455 81.3829 31.0455C81.8167 31.0455 82.2054 30.992 82.5491 30.885C82.8928 30.7723 83.1914 30.6117 83.445 30.4033C83.6985 30.1948 83.9041 29.9441 84.0619 29.6511C84.2253 29.3525 84.3351 29.0173 84.3915 28.6454L89.158 28.6792C89.1016 29.4116 88.896 30.1582 88.541 30.9188C88.1861 31.6738 87.6818 32.3724 87.0283 33.0147C86.3803 33.6513 85.5775 34.164 84.6197 34.5528C83.6619 34.9415 82.5491 35.1359 81.2814 35.1359C79.6926 35.1359 78.2672 34.7951 77.0051 34.1133C75.7487 33.4316 74.7543 32.4287 74.0219 31.1047C73.2951 29.7807 72.9317 28.1609 72.9317 26.2453C72.9317 24.3184 73.3035 22.6958 74.0472 21.3774C74.7909 20.0534 75.7938 19.0533 77.0559 18.3772C78.3179 17.6955 79.7264 17.3546 81.2814 17.3546C82.3745 17.3546 83.3802 17.5039 84.2985 17.8025C85.2169 18.1011 86.0226 18.5378 86.7156 19.1125C87.4086 19.6815 87.9663 20.383 88.3889 21.2168C88.8115 22.0507 89.0678 23.0056 89.158 24.0818ZM91.2898 34.8993V17.5912H103.764V21.3774H95.9886V24.3522H103.121V28.1383H95.9886V31.1132H103.73V34.8993H91.2898Z" fill="white"/>
</svg>
