<svg width="124" height="62" viewBox="0 0 124 62" fill="none" xmlns="http://www.w3.org/2000/svg">
<ellipse cx="98.5078" cy="23.5472" rx="20.6501" ry="20.0152" fill="#196CCE"/>
<ellipse cx="93.4923" cy="28.9404" rx="21.3034" ry="21.7053" fill="#3B3B3B"/>
<rect x="93.8943" width="8.90787" height="6.67174" fill="#196CCE"/>
<rect width="8.7972" height="6.75886" transform="matrix(0.779159 0.626826 -0.650438 0.75956 110.192 1.9624)" fill="#196CCE"/>
<rect width="8.65224" height="6.86968" transform="matrix(0.209318 0.977848 -0.980967 0.194177 121.535 13.6663)" fill="#196CCE"/>
<rect x="108.808" y="33.228" width="14.8035" height="6.04143" fill="#3B3B3B"/>
<rect width="14.3484" height="6.23306" transform="matrix(0.000534846 1 -1 0.000502466 87.7716 0)" fill="#3B3B3B"/>
<path d="M11.104 56.2844V41.8611H13.2802V48.7488H13.4563L19.5059 41.8611H22.2455L16.4283 48.3544L22.2666 56.2844H19.6468L14.9845 49.8404L13.2802 51.7982V56.2844H11.104ZM42.0512 49.0727C42.0512 50.6127 41.7695 51.9368 41.2061 53.0448C40.6427 54.1481 39.8704 54.998 38.8891 55.5942C37.9125 56.1858 36.8021 56.4816 35.5579 56.4816C34.309 56.4816 33.1939 56.1858 32.2126 55.5942C31.236 54.998 30.466 54.1458 29.9026 53.0378C29.3392 51.9297 29.0575 50.608 29.0575 49.0727C29.0575 47.5327 29.3392 46.2111 29.9026 45.1077C30.466 43.9997 31.236 43.1499 32.2126 42.5583C33.1939 41.962 34.309 41.6639 35.5579 41.6639C36.8021 41.6639 37.9125 41.962 38.8891 42.5583C39.8704 43.1499 40.6427 43.9997 41.2061 45.1077C41.7695 46.2111 42.0512 47.5327 42.0512 49.0727ZM39.8962 49.0727C39.8962 47.899 39.706 46.9106 39.3257 46.1078C38.9501 45.3002 38.4336 44.6899 37.7763 44.2767C37.1237 43.8588 36.3842 43.6499 35.5579 43.6499C34.7269 43.6499 33.985 43.8588 33.3324 44.2767C32.6798 44.6899 32.1633 45.3002 31.783 46.1078C31.4074 46.9106 31.2196 47.899 31.2196 49.0727C31.2196 50.2465 31.4074 51.2372 31.783 52.0447C32.1633 52.8476 32.6798 53.458 33.3324 53.8758C33.985 54.289 34.7269 54.4956 35.5579 54.4956C36.3842 54.4956 37.1237 54.289 37.7763 53.8758C38.4336 53.458 38.9501 52.8476 39.3257 52.0447C39.706 51.2372 39.8962 50.2465 39.8962 49.0727ZM50.013 56.2844V41.8611H55.1541C56.2715 41.8611 57.1988 42.0535 57.936 42.4385C58.6778 42.8235 59.2318 43.3564 59.598 44.0372C59.9642 44.7133 60.1474 45.4951 60.1474 46.3824C60.1474 47.2651 59.9619 48.0422 59.591 48.7136C59.2248 49.3803 58.6707 49.8991 57.9289 50.27C57.1918 50.6409 56.2645 50.8264 55.1471 50.8264H51.2525V48.953H54.9499C55.6541 48.953 56.2269 48.8521 56.6683 48.6502C57.1143 48.4483 57.4406 48.1548 57.6472 47.7698C57.8538 47.3848 57.9571 46.9224 57.9571 46.3824C57.9571 45.8378 57.8514 45.3659 57.6402 44.9669C57.4336 44.5678 57.1073 44.2626 56.6612 44.0513C56.2199 43.8353 55.64 43.7274 54.9217 43.7274H52.1891V56.2844H50.013ZM57.1331 49.777L60.6967 56.2844H58.2177L54.7245 49.777H57.1331ZM68.0439 56.2844V41.8611H77.0867V43.7344H70.2201V48.129H76.6149V49.9953H70.2201V54.4111H77.1712V56.2844H68.0439ZM86.4605 56.2844H84.1505L89.3409 41.8611H91.8552L97.0456 56.2844H94.7356L90.6579 44.4809H90.5452L86.4605 56.2844ZM86.8478 50.6362H94.3412V52.4673H86.8478V50.6362Z" fill="#196CCE"/>
<path d="M10.4456 22.9999C10.4006 22.4365 10.1893 21.997 9.81181 21.6815C9.43995 21.366 8.87372 21.2082 8.11312 21.2082C7.62858 21.2082 7.23138 21.2674 6.9215 21.3857C6.61726 21.4984 6.39189 21.6533 6.2454 21.8505C6.09892 22.0477 6.02285 22.2731 6.01722 22.5266C6.00595 22.7351 6.04257 22.9238 6.12709 23.0929C6.21723 23.2562 6.35809 23.4055 6.54965 23.5408C6.74121 23.6703 6.98629 23.7887 7.2849 23.8957C7.58351 24.0028 7.93846 24.0985 8.34975 24.1831L9.76955 24.4873C10.7274 24.6901 11.5471 24.9577 12.2288 25.2902C12.9106 25.6226 13.4684 26.0141 13.9022 26.4649C14.336 26.91 14.6543 27.4114 14.8572 27.9692C15.0656 28.527 15.1727 29.1355 15.1783 29.7946C15.1727 30.9327 14.8882 31.8962 14.3247 32.685C13.7613 33.4737 12.9557 34.0738 11.9077 34.4851C10.8654 34.8964 9.6118 35.102 8.14692 35.102C6.64261 35.102 5.32986 34.8795 4.20866 34.4344C3.09311 33.9893 2.22545 33.3047 1.6057 32.3807C0.991576 31.4511 0.681699 30.2623 0.676065 28.8143H5.1383C5.16647 29.3439 5.29887 29.789 5.5355 30.1496C5.77214 30.5102 6.10455 30.7834 6.53274 30.9694C6.96657 31.1553 7.48209 31.2483 8.07931 31.2483C8.58075 31.2483 9.00049 31.1863 9.33854 31.0623C9.67659 30.9384 9.93294 30.7665 10.1076 30.5468C10.2823 30.3271 10.3724 30.0764 10.378 29.7946C10.3724 29.5298 10.2851 29.2988 10.1161 29.1016C9.95266 28.8988 9.68222 28.7185 9.30474 28.5608C8.92725 28.3974 8.41736 28.2453 7.77507 28.1044L6.05103 27.7326C4.51854 27.4001 3.31002 26.8452 2.42546 26.0677C1.54654 25.2845 1.10989 24.2169 1.11553 22.8647C1.10989 21.766 1.40287 20.8054 1.99445 19.9828C2.59167 19.1546 3.41707 18.5095 4.47065 18.0475C5.52987 17.5855 6.74402 17.3545 8.11312 17.3545C9.51038 17.3545 10.7189 17.5883 11.7387 18.0559C12.7585 18.5236 13.5444 19.1828 14.0966 20.0335C14.6543 20.8786 14.936 21.8674 14.9417 22.9999H10.4456ZM16.9657 34.8992V17.5911H29.4397V21.3773H21.6646V24.3521H28.7974V28.1382H21.6646V31.113H29.4059V34.8992H16.9657ZM31.7701 34.8992V17.5911H39.241C40.5256 17.5911 41.6496 17.8249 42.613 18.2926C43.5764 18.7602 44.3258 19.4335 44.861 20.3124C45.3963 21.1913 45.6639 22.2449 45.6639 23.4732C45.6639 24.7127 45.3878 25.7578 44.8357 26.6085C44.2892 27.4593 43.5201 28.1016 42.5285 28.5354C41.5425 28.9692 40.3903 29.1862 39.072 29.1862H34.6097V25.5352H38.1254C38.6776 25.5352 39.148 25.4676 39.5368 25.3324C39.9312 25.1916 40.2326 24.969 40.441 24.6648C40.6551 24.3605 40.7622 23.9633 40.7622 23.4732C40.7622 22.9774 40.6551 22.5745 40.441 22.2646C40.2326 21.9491 39.9312 21.7181 39.5368 21.5716C39.148 21.4195 38.6776 21.3435 38.1254 21.3435H36.469V34.8992H31.7701ZM41.9116 26.955L46.2386 34.8992H41.134L36.9085 26.955H41.9116ZM51.865 17.5911L55.4145 29.7946H55.5497L59.0992 17.5911H64.4065L58.6935 34.8992H52.2706L46.5576 17.5911H51.865ZM70.7724 17.5911V34.8992H66.0735V17.5911H70.7724ZM89.158 24.0816H84.3915C84.3577 23.6873 84.2675 23.3295 84.1211 23.0083C83.9802 22.6872 83.783 22.4111 83.5295 22.1801C83.2816 21.9435 82.9801 21.7632 82.6252 21.6392C82.2702 21.5097 81.8674 21.4449 81.4167 21.4449C80.6279 21.4449 79.9602 21.6364 79.4137 22.0195C78.8729 22.4027 78.4616 22.952 78.1799 23.6675C77.9038 24.3831 77.7658 25.2423 77.7658 26.2451C77.7658 27.3044 77.9066 28.1917 78.1883 28.9073C78.4757 29.6172 78.8898 30.1524 79.4306 30.513C79.9715 30.8679 80.6223 31.0454 81.3829 31.0454C81.8167 31.0454 82.2054 30.9919 82.5491 30.8849C82.8928 30.7722 83.1914 30.6116 83.445 30.4031C83.6985 30.1947 83.9041 29.944 84.0619 29.651C84.2253 29.3524 84.3351 29.0171 84.3915 28.6453L89.158 28.6791C89.1016 29.4115 88.896 30.158 88.541 30.9187C88.1861 31.6736 87.6818 32.3723 87.0283 33.0146C86.3803 33.6512 85.5775 34.1639 84.6197 34.5527C83.6619 34.9414 82.5491 35.1358 81.2814 35.1358C79.6926 35.1358 78.2672 34.7949 77.0051 34.1132C75.7487 33.4315 74.7543 32.4286 74.0219 31.1046C73.2951 29.7806 72.9317 28.1608 72.9317 26.2451C72.9317 24.3183 73.3035 22.6956 74.0472 21.3773C74.7909 20.0532 75.7938 19.0532 77.0559 18.3771C78.3179 17.6954 79.7264 17.3545 81.2814 17.3545C82.3745 17.3545 83.3802 17.5038 84.2985 17.8024C85.2169 18.101 86.0226 18.5377 86.7156 19.1123C87.4086 19.6814 87.9663 20.3828 88.3889 21.2167C88.8115 22.0505 89.0678 23.0055 89.158 24.0816ZM91.2898 34.8992V17.5911H103.764V21.3773H95.9886V24.3521H103.121V28.1382H95.9886V31.113H103.73V34.8992H91.2898Z" fill="white"/>
</svg>
